<svg xmlns="http://www.w3.org/2000/svg" viewBox="0 0 100 100">
  <defs>
    <linearGradient id="justice-grad" x1="0%" y1="0%" x2="100%" y2="100%">
      <stop offset="0%" stop-color="#1E3A8A" />
      <stop offset="100%" stop-color="#3B82F6" />
    </linearGradient>
    <linearGradient id="gold-grad" x1="0%" y1="0%" x2="100%" y2="100%">
      <stop offset="0%" stop-color="#F59E0B" />
      <stop offset="100%" stop-color="#D97706" />
    </linearGradient>
  </defs>
  <rect width="100" height="100" rx="22" fill="url(#justice-grad)" />
  <g transform="translate(10, 10) scale(0.8)" stroke="url(#gold-grad)" stroke-width="4" fill="none" stroke-linecap="round" stroke-linejoin="round">
    <line x1="50" y1="20" x2="50" y2="80" stroke-width="5" />
    <path d="M32 80 h36" stroke-width="6" />
    <circle cx="50" cy="18" r="4" fill="url(#gold-grad)" stroke="none" />
    <line x1="22" y1="35" x2="78" y2="35" stroke-width="4.5" />
    <line x1="22" y1="35" x2="12" y2="60" stroke-width="2" />
    <line x1="22" y1="35" x2="32" y2="60" stroke-width="2" />
    <path d="M9 60 c0 7 18 7 18 0" fill="url(#gold-grad)" opacity="0.85" />
    <line x1="78" y1="35" x2="68" y2="60" stroke-width="2" />
    <line x1="78" y1="35" x2="88" y2="60" stroke-width="2" />
    <path d="M65 60 c0 7 18 7 18 0" fill="url(#gold-grad)" opacity="0.85" />
  </g>
</svg>
